<svg width="0" height="0" class="hidden">
  <symbol xmlns="http://www.w3.org/2000/svg" viewBox="0 0 25.6 25.6" id="mysql">
    <path d="M179.076 94.886c-3.568-.1-6.336.268-8.656 1.25-.668.27-1.74.27-1.828 1.116.357.355.4.936.713 1.428.535.893 1.473 2.096 2.32 2.72l2.855 2.053c1.74 1.07 3.703 1.695 5.398 2.766.982.625 1.963 1.428 2.945 2.098.5.357.803.938 1.428 1.16v-.135c-.312-.4-.402-.98-.713-1.428l-1.34-1.293c-1.293-1.74-2.9-3.258-4.64-4.506-1.428-.982-4.55-2.32-5.13-3.97l-.088-.1c.98-.1 2.14-.447 3.078-.715 1.518-.4 2.9-.312 4.46-.713l2.143-.625v-.4c-.803-.803-1.383-1.874-2.23-2.632-2.275-1.963-4.775-3.882-7.363-5.488-1.383-.892-3.168-1.473-4.64-2.23-.537-.268-1.428-.402-1.74-.848-.805-.98-1.25-2.275-1.83-3.436l-3.658-7.763c-.803-1.74-1.295-3.48-2.275-5.086-4.596-7.585-9.594-12.18-17.268-16.687-1.65-.937-3.613-1.34-5.7-1.83l-3.346-.18c-.715-.312-1.428-1.16-2.053-1.562-2.543-1.606-9.102-5.086-10.977-.5-1.205 2.9 1.785 5.755 2.8 7.228.76 1.026 1.74 2.186 2.277 3.346.3.758.4 1.562.713 2.365.713 1.963 1.383 4.15 2.32 5.98.5.937 1.025 1.92 1.65 2.767.357.5.982.714 1.115 1.517-.625.893-.668 2.23-1.025 3.347-1.607 5.042-.982 11.288 1.293 15 .715 1.115 2.4 3.57 4.686 2.632 2.008-.803 1.56-3.346 2.14-5.577.135-.535.045-.892.312-1.25v.1l1.83 3.703c1.383 2.186 3.793 4.462 5.8 5.98 1.07.803 1.918 2.187 3.256 2.677v-.135h-.088c-.268-.4-.67-.58-1.027-.892-.803-.803-1.695-1.785-2.32-2.677-1.873-2.498-3.523-5.265-4.996-8.12-.715-1.383-1.34-2.9-1.918-4.283-.27-.536-.27-1.34-.715-1.606-.67.98-1.65 1.83-2.143 3.034-.848 1.918-.936 4.283-1.248 6.737-.18.045-.1 0-.18.1-1.426-.356-1.918-1.83-2.453-3.078-1.338-3.168-1.562-8.254-.402-11.913.312-.937 1.652-3.882 1.117-4.774-.27-.848-1.16-1.338-1.652-2.008-.58-.848-1.203-1.918-1.605-2.855-1.07-2.5-1.605-5.265-2.766-7.764-.537-1.16-1.473-2.365-2.232-3.435-.848-1.205-1.783-2.053-2.453-3.48-.223-.5-.535-1.294-.178-1.83.088-.357.268-.5.623-.58.58-.5 2.232.134 2.812.4 1.65.67 3.033 1.294 4.416 2.23.625.446 1.295 1.294 2.098 1.518h.938c1.428.312 3.033.1 4.37.5 2.365.76 4.506 1.874 6.426 3.08 5.844 3.703 10.664 8.968 13.92 15.26.535 1.026.758 1.963 1.25 3.034.938 2.187 2.098 4.417 3.033 6.56.938 2.097 1.83 4.24 3.168 5.98.67.937 3.346 1.427 4.55 1.918.893.4 2.275.76 3.08 1.25 1.516.937 3.033 2.008 4.46 3.034.713.534 2.945 1.65 3.078 2.54zm-45.5-38.772a7.09 7.09 0 0 0-1.828.223v.1h.088c.357.714.982 1.205 1.428 1.83l1.027 2.142.088-.1c.625-.446.938-1.16.938-2.23-.268-.312-.312-.625-.535-.937-.268-.446-.848-.67-1.206-1.026z" transform="matrix(.390229 0 0 .38781 -46.300037 -16.856717)" fill-rule="evenodd" fill="#00678c"></path>
  </symbol>
  <symbol xmlns="http://www.w3.org/2000/svg" baseProfile="basic" viewBox="0 0 48 48" id="node">
    <path fill="#21a366" d="M24.007,45.419c-0.574,0-1.143-0.15-1.646-0.44l-5.24-3.103c-0.783-0.438-0.401-0.593-0.143-0.682	c1.044-0.365,1.255-0.448,2.369-1.081c0.117-0.067,0.27-0.043,0.39,0.028l4.026,2.389c0.145,0.079,0.352,0.079,0.486,0l15.697-9.061	c0.145-0.083,0.24-0.251,0.24-0.424V14.932c0-0.181-0.094-0.342-0.243-0.432L24.253,5.446c-0.145-0.086-0.338-0.086-0.483,0	L8.082,14.499c-0.152,0.086-0.249,0.255-0.249,0.428v18.114c0,0.173,0.094,0.338,0.244,0.42l4.299,2.483	c2.334,1.167,3.76-0.208,3.76-1.591V16.476c0-0.255,0.2-0.452,0.456-0.452h1.988c0.248,0,0.452,0.196,0.452,0.452v17.886	c0,3.112-1.697,4.9-4.648,4.9c-0.908,0-1.623,0-3.619-0.982l-4.118-2.373C5.629,35.317,5,34.216,5,33.042V14.928	c0-1.179,0.629-2.279,1.646-2.861L22.36,3.002c0.994-0.562,2.314-0.562,3.301,0l15.694,9.069C42.367,12.656,43,13.753,43,14.932	v18.114c0,1.175-0.633,2.271-1.646,2.861L25.66,44.971c-0.503,0.291-1.073,0.44-1.654,0.44"></path>
    <path fill="#21a366" d="M28.856,32.937c-6.868,0-8.308-3.153-8.308-5.797c0-0.251,0.203-0.452,0.455-0.452h2.028	c0.224,0,0.413,0.163,0.448,0.384c0.306,2.066,1.218,3.108,5.371,3.108c3.308,0,4.715-0.747,4.715-2.502	c0-1.01-0.401-1.76-5.54-2.263c-4.299-0.424-6.955-1.371-6.955-4.809c0-3.167,2.672-5.053,7.147-5.053	c5.026,0,7.517,1.745,7.831,5.493c0.012,0.13-0.035,0.255-0.122,0.35c-0.086,0.09-0.208,0.145-0.334,0.145h-2.039	c-0.212,0-0.397-0.149-0.44-0.354c-0.491-2.173-1.678-2.868-4.904-2.868c-3.611,0-4.031,1.257-4.031,2.2	c0,1.143,0.495,1.477,5.367,2.122c4.825,0.64,7.116,1.544,7.116,4.935c0,3.418-2.853,5.379-7.827,5.379"></path>
  </symbol>
  <symbol xmlns="http://www.w3.org/2000/svg" clip-rule="evenodd" viewBox="0 0 48 48" id="sass">
    <path fill="#f06292" fill-rule="evenodd" d="M24.042,4.032C35.065,4.032,44,12.967,44,23.99	c0,11.022-8.935,19.958-19.958,19.958c-11.022,0-19.958-8.935-19.958-19.958C4.085,12.967,13.02,4.032,24.042,4.032L24.042,4.032z" clip-rule="evenodd"></path>
    <path fill="#fff" d="M36.561,12.574c-0.904-3.545-6.781-4.71-12.343-2.734c-3.31,1.176-6.894,3.022-9.471,5.432 c-3.064,2.866-3.552,5.36-3.351,6.402c0.71,3.677,5.749,6.081,7.82,7.865v0.011c-0.611,0.301-5.081,2.563-6.127,4.876 c-1.104,2.44,0.176,4.191,1.023,4.427c2.625,0.73,5.318-0.583,6.766-2.742c1.397-2.084,1.281-4.774,0.674-6.113 c0.837-0.221,1.814-0.32,3.054-0.175c3.501,0.409,4.188,2.595,4.056,3.51c-0.131,0.915-0.866,1.418-1.111,1.57 c-0.246,0.152-0.32,0.205-0.3,0.317c0.03,0.164,0.143,0.158,0.353,0.123c0.288-0.049,1.838-0.744,1.905-2.433 c0.084-2.144-1.97-4.542-5.608-4.48c-1.498,0.026-2.44,0.168-3.121,0.422c-0.05-0.057-0.102-0.114-0.154-0.171 c-2.249-2.4-6.407-4.097-6.231-7.323c0.064-1.173,0.472-4.261,7.989-8.007c6.158-3.069,11.088-2.224,11.94-0.353 c1.217,2.674-2.635,7.643-9.03,8.36c-2.437,0.273-3.72-0.671-4.039-1.023c-0.336-0.37-0.386-0.387-0.511-0.317 c-0.204,0.113-0.075,0.44,0,0.635c0.191,0.497,0.975,1.378,2.31,1.817c1.175,0.386,4.036,0.597,7.496-0.741 C34.424,20.229,37.45,16.059,36.561,12.574z M20.076,30.638c0.29,1.074,0.258,2.076-0.041,2.983c-0.033,0.101-0.07,0.2-0.11,0.299 c-0.04,0.098-0.083,0.196-0.129,0.292c-0.231,0.48-0.542,0.929-0.922,1.344c-1.16,1.265-2.78,1.743-3.474,1.34 c-0.75-0.435-0.374-2.218,0.97-3.64c1.446-1.529,3.527-2.512,3.527-2.512l-0.003-0.006C19.954,30.705,20.015,30.672,20.076,30.638z"></path>
  </symbol>
  <symbol xmlns="http://www.w3.org/2000/svg" viewBox="0 0 48 48" id="word">
    <path fill="#2196F3" d="M41,10H25v28h16c0.553,0,1-0.447,1-1V11C42,10.447,41.553,10,41,10z"></path>
    <path fill="#FFF" d="M25 15.001H39V17H25zM25 19H39V21H25zM25 23.001H39V25.001H25zM25 27.001H39V29H25zM25 31H39V33.001H25z"></path>
    <path fill="#0D47A1" d="M27 42L6 38 6 10 27 6z"></path>
    <path fill="#FFF" d="M21.167,31.012H18.45l-1.802-8.988c-0.098-0.477-0.155-0.996-0.174-1.576h-0.032c-0.043,0.637-0.11,1.162-0.197,1.576l-1.85,8.988h-2.827l-2.86-14.014h2.675l1.536,9.328c0.062,0.404,0.111,0.938,0.143,1.607h0.042c0.019-0.498,0.098-1.051,0.223-1.645l1.97-9.291h2.622l1.785,9.404c0.062,0.348,0.119,0.846,0.17,1.511h0.031c0.02-0.515,0.073-1.035,0.16-1.563l1.503-9.352h2.468L21.167,31.012z"></path>
  </symbol>
  <symbol xmlns="http://www.w3.org/2000/svg" viewBox="0 0 24 24" id="arrow_drop_up_black">
    <path d="M0 0h24v24H0V0z" fill="none"></path>
    <path d="M8.71 12.29L11.3 9.7c.39-.39 1.02-.39 1.41 0l2.59 2.59c.63.63.18 1.71-.71 1.71H9.41c-.89 0-1.33-1.08-.7-1.71z"></path>
  </symbol>
  <symbol xmlns="http://www.w3.org/2000/svg" viewBox="0 0 512 512" id="close-outline">
    <path fill="none" stroke="currentColor" stroke-linecap="round" stroke-linejoin="round" stroke-width="32" d="M368 368L144 144M368 144L144 368"></path>
  </symbol>
  <symbol xmlns="http://www.w3.org/2000/svg" viewBox="0 0 512 512" id="copy-outline">
    <rect x="128" y="128" width="336" height="336" rx="57" ry="57" fill="none" stroke="currentColor" stroke-linejoin="round" stroke-width="32"></rect>
    <path d="M383.5 128l.5-24a56.16 56.16 0 00-56-56H112a64.19 64.19 0 00-64 64v216a56.16 56.16 0 0056 56h24" fill="none" stroke="currentColor" stroke-linecap="round" stroke-linejoin="round" stroke-width="32"></path>
  </symbol>
  <symbol xmlns="http://www.w3.org/2000/svg" viewBox="0 0 48 48" id="css">
    <path fill="#0277BD" d="M41,5H7l3,34l14,4l14-4L41,5L41,5z"></path>
    <path fill="#039BE5" d="M24 8L24 39.9 35.2 36.7 37.7 8z"></path>
    <path fill="#FFF" d="M33.1 13L24 13 24 17 28.9 17 28.6 21 24 21 24 25 28.4 25 28.1 29.5 24 30.9 24 35.1 31.9 32.5 32.6 21 32.6 21z"></path>
    <path fill="#EEE" d="M24,13v4h-8.9l-0.3-4H24z M19.4,21l0.2,4H24v-4H19.4z M19.8,27h-4l0.3,5.5l7.9,2.6v-4.2l-4.1-1.4L19.8,27z"></path>
  </symbol>
  <symbol xmlns="http://www.w3.org/2000/svg" viewBox="0 0 48 48" id="ejs">
    <path fill="#c0ca33" d="M34.868,28.641c0.73,0.675,1.409,1.362,2.151,1.974c1.007,0.832,2.125,1.469,3.471,1.568 c0.84,0.062,1.631-0.066,2.246-0.709c1.155-1.207,0.779-3.317-0.778-4.072c-0.955-0.463-1.975-0.795-2.975-1.163 c-1.596-0.587-3.121-1.287-4.309-2.555c-0.531-0.567-0.893-1.236-1.108-1.976c-0.615-2.118-0.692-4.257-0.017-6.366 c0.766-2.396,2.46-3.849,4.892-4.412c2.043-0.472,3.998-0.09,5.874,0.778c1.137,0.526,2.132,1.252,3.015,2.14 c0.186,0.187,0.224,0.333,0.093,0.574c-0.661,1.212-1.305,2.434-1.955,3.652c-0.033,0.061-0.076,0.117-0.134,0.206 c-0.245-0.215-0.473-0.423-0.711-0.621c-1.338-1.114-2.816-1.888-4.613-1.876c-1.188,0.008-1.994,0.623-2.271,1.731 c-0.298,1.195,0.14,2.253,1.15,2.814c1.119,0.621,2.343,0.969,3.539,1.393c1.719,0.609,3.246,1.507,4.317,3.032 c0.714,1.017,1.004,2.188,1.126,3.405c0.146,1.458,0.089,2.899-0.369,4.309c-0.916,2.82-3.292,4.638-6.264,4.79 c-2.574,0.132-4.824-0.699-6.782-2.324c-0.731-0.607-1.372-1.322-2.042-2c-0.066-0.067-0.101-0.255-0.056-0.329 c0.81-1.313,1.635-2.618,2.458-3.923C34.832,28.66,34.862,28.646,34.868,28.641z"></path>
    <polygon fill="#c0ca33" points="14.274,16.462 14.274,11.34 0.009,11.34 0.009,36.896 14.274,36.896 14.274,31.774 5.16,31.774 5.16,26.821 13.226,26.821 13.226,21.698 5.16,21.698 5.16,16.462"></polygon>
    <path fill="#c0ca33" d="M29.613,11.34H19.34v5.038h5.208v13.005c0.085,2.08-1.047,2.533-1.047,2.533	c-2.377,0.792-4.346-2.343-4.346-2.343l-2.39,4.211c3.566,3.934,7.443,3.311,7.443,3.311c5.377-0.113,5.377-7.712,5.377-7.712	L29.613,11.34z"></path>
  </symbol>
  <symbol xmlns="http://www.w3.org/2000/svg" viewBox="0 0 48 48" id="excel">
    <path fill="#169154" d="M29,6H15.744C14.781,6,14,6.781,14,7.744v7.259h15V6z"></path>
    <path fill="#18482a" d="M14,33.054v7.202C14,41.219,14.781,42,15.743,42H29v-8.946H14z"></path>
    <path fill="#0c8045" d="M14 15.003H29V24.005000000000003H14z"></path>
    <path fill="#17472a" d="M14 24.005H29V33.055H14z"></path>
    <g>
      <path fill="#29c27f" d="M42.256,6H29v9.003h15V7.744C44,6.781,43.219,6,42.256,6z"></path>
      <path fill="#27663f" d="M29,33.054V42h13.257C43.219,42,44,41.219,44,40.257v-7.202H29z"></path>
      <path fill="#19ac65" d="M29 15.003H44V24.005000000000003H29z"></path>
      <path fill="#129652" d="M29 24.005H44V33.055H29z"></path>
    </g>
    <path fill="#0c7238" d="M22.319,34H5.681C4.753,34,4,33.247,4,32.319V15.681C4,14.753,4.753,14,5.681,14h16.638 C23.247,14,24,14.753,24,15.681v16.638C24,33.247,23.247,34,22.319,34z"></path>
    <path fill="#fff" d="M9.807 19L12.193 19 14.129 22.754 16.175 19 18.404 19 15.333 24 18.474 29 16.123 29 14.013 25.07 11.912 29 9.526 29 12.719 23.982z"></path>
  </symbol>
  <symbol xmlns="http://www.w3.org/2000/svg" fill="#fff" viewBox="0 -960 960 960" id="download">
    <path d="M480-320 280-520l56-58 104 104v-326h80v326l104-104 56 58-200 200ZM240-160q-33 0-56.5-23.5T160-240v-120h80v120h480v-120h80v120q0 33-23.5 56.5T720-160H240Z"></path>
  </symbol>
  <symbol xmlns="http://www.w3.org/2000/svg" viewBox="0 0 50 50" id="express">
    <path d="M49.729 11h-.85c-1.051 0-2.041.49-2.68 1.324l-8.7 11.377-8.7-11.377C28.162 11.49 27.171 11 26.121 11h-.85l10.971 14.346L25.036 40h.85c1.051 0 2.041-.49 2.679-1.324L37.5 26.992l8.935 11.684C47.073 39.51 48.063 40 49.114 40h.85L38.758 25.346 49.729 11zM21.289 34.242c-2.554 3.881-7.582 5.87-12.389 4.116C4.671 36.815 2 32.611 2 28.109L2 27h12v0h11l0-4.134c0-6.505-4.818-12.2-11.295-12.809C6.273 9.358 0 15.21 0 22.5l0 5.573c0 5.371 3.215 10.364 8.269 12.183 6.603 2.376 13.548-1.17 15.896-7.256 0 0 0 0 0 0h-.638C22.616 33 21.789 33.481 21.289 34.242zM2 22.5C2 16.71 6.71 12 12.5 12S23 16.71 23 22.5V25H2V22.5z"></path>
  </symbol>
  <symbol xmlns="http://www.w3.org/2000/svg" viewBox="0 0 48 48" id="figma">
    <path fill="#e64a19" d="M26,17h-8c-3.866,0-7-3.134-7-7v0c0-3.866,3.134-7,7-7h8V17z"></path>
    <path fill="#7c4dff" d="M25,31h-7c-3.866,0-7-3.134-7-7v0c0-3.866,3.134-7,7-7h7V31z"></path>
    <path fill="#66bb6a" d="M18,45L18,45c-3.866,0-7-3.134-7-7v0c0-3.866,3.134-7,7-7h7v7C25,41.866,21.866,45,18,45z"></path>
    <path fill="#ff7043" d="M32,17h-7V3h7c3.866,0,7,3.134,7,7v0C39,13.866,35.866,17,32,17z"></path>
    <circle cx="32" cy="24" r="7" fill="#29b6f6"></circle>
  </symbol>
  <symbol xmlns="http://www.w3.org/2000/svg" viewBox="0 0 48 48" id="html">
    <path fill="#E65100" d="M41,5H7l3,34l14,4l14-4L41,5L41,5z"></path>
    <path fill="#FF6D00" d="M24 8L24 39.9 35.2 36.7 37.7 8z"></path>
    <path fill="#FFF" d="M24,25v-4h8.6l-0.7,11.5L24,35.1v-4.2l4.1-1.4l0.3-4.5H24z M32.9,17l0.3-4H24v4H32.9z"></path>
    <path fill="#EEE" d="M24,30.9v4.2l-7.9-2.6L15.7,27h4l0.2,2.5L24,30.9z M19.1,17H24v-4h-9.1l0.7,12H24v-4h-4.6L19.1,17z"></path>
  </symbol>
  <symbol xmlns="http://www.w3.org/2000/svg" viewBox="0 0 48 48" id="illustrator">
    <path fill="#FF5722" d="M6,10c0-2.209,1.791-4,4-4h28c2.209,0,4,1.791,4,4v28c0,2.209-1.791,4-4,4H10c-2.209,0-4-1.791-4-4V10z"></path>
    <path fill="#1C0802" d="M9,9v30h30V9H9z M23.691,31l-0.762-2.91h-3.916L18.252,31h-3.037l4.443-14.219h2.627L26.758,31H23.691z M30.85,31h-2.773V20.434h2.773V31z M30.552,18.754c-0.271,0.28-0.636,0.42-1.099,0.42s-0.828-0.14-1.099-0.42s-0.405-0.632-0.405-1.055c0-0.43,0.137-0.781,0.41-1.055s0.639-0.41,1.094-0.41s0.82,0.137,1.094,0.41s0.41,0.625,0.41,1.055C30.957,18.122,30.822,18.474,30.552,18.754z"></path>
    <path fill="#1C0802" d="M19.639 25.697L22.295 25.697 20.967 20.629z"></path>
  </symbol>
  <symbol xmlns="http://www.w3.org/2000/svg" viewBox="0 0 48 48" id="js">
    <path fill="#ffd600" d="M6,42V6h36v36H6z"></path>
    <path fill="#000001" d="M29.538 32.947c.692 1.124 1.444 2.201 3.037 2.201 1.338 0 2.04-.665 2.04-1.585 0-1.101-.726-1.492-2.198-2.133l-.807-.344c-2.329-.988-3.878-2.226-3.878-4.841 0-2.41 1.845-4.244 4.728-4.244 2.053 0 3.528.711 4.592 2.573l-2.514 1.607c-.553-.988-1.151-1.377-2.078-1.377-.946 0-1.545.597-1.545 1.377 0 .964.6 1.354 1.985 1.951l.807.344C36.452 29.645 38 30.839 38 33.523 38 36.415 35.716 38 32.65 38c-2.999 0-4.702-1.505-5.65-3.368L29.538 32.947zM17.952 33.029c.506.906 1.275 1.603 2.381 1.603 1.058 0 1.667-.418 1.667-2.043V22h3.333v11.101c0 3.367-1.953 4.899-4.805 4.899-2.577 0-4.437-1.746-5.195-3.368L17.952 33.029z"></path>
  </symbol>
  <symbol xmlns="http://www.w3.org/2000/svg" viewBox="0 0 512 512" id="link-outline">
    <path d="M384 224v184a40 40 0 01-40 40H104a40 40 0 01-40-40V168a40 40 0 0140-40h167.48M336 64h112v112M224 288L440 72" fill="none" stroke="currentColor" stroke-linecap="round" stroke-linejoin="round" stroke-width="32"></path>
  </symbol>
  <symbol xmlns="http://www.w3.org/2000/svg" viewBox="0 0 512 512" id="logo-github">
    <path d="M256 32C132.3 32 32 134.9 32 261.7c0 101.5 64.2 187.5 153.2 217.9a17.56 17.56 0 003.8.4c8.3 0 11.5-6.1 11.5-11.4 0-5.5-.2-19.9-.3-39.1a102.4 102.4 0 01-22.6 2.7c-43.1 0-52.9-33.5-52.9-33.5-10.2-26.5-24.9-33.6-24.9-33.6-19.5-13.7-.1-14.1 1.4-14.1h.1c22.5 2 34.3 23.8 34.3 23.8 11.2 19.6 26.2 25.1 39.6 25.1a63 63 0 0025.6-6c2-14.8 7.8-24.9 14.2-30.7-49.7-5.8-102-25.5-102-113.5 0-25.1 8.7-45.6 23-61.6-2.3-5.8-10-29.2 2.2-60.8a18.64 18.64 0 015-.5c8.1 0 26.4 3.1 56.6 24.1a208.21 208.21 0 01112.2 0c30.2-21 48.5-24.1 56.6-24.1a18.64 18.64 0 015 .5c12.2 31.6 4.5 55 2.2 60.8 14.3 16.1 23 36.6 23 61.6 0 88.2-52.4 107.6-102.3 113.3 8 7.1 15.2 21.1 15.2 42.5 0 30.7-.3 55.5-.3 63 0 5.4 3.1 11.5 11.4 11.5a19.35 19.35 0 004-.4C415.9 449.2 480 363.1 480 261.7 480 134.9 379.7 32 256 32z"></path>
  </symbol>
  <symbol xmlns="http://www.w3.org/2000/svg" viewBox="0 0 512 512" id="logo-instagram">
    <path d="M349.33 69.33a93.62 93.62 0 0193.34 93.34v186.66a93.62 93.62 0 01-93.34 93.34H162.67a93.62 93.62 0 01-93.34-93.34V162.67a93.62 93.62 0 0193.34-93.34h186.66m0-37.33H162.67C90.8 32 32 90.8 32 162.67v186.66C32 421.2 90.8 480 162.67 480h186.66C421.2 480 480 421.2 480 349.33V162.67C480 90.8 421.2 32 349.33 32z"></path>
    <path d="M377.33 162.67a28 28 0 1128-28 27.94 27.94 0 01-28 28zM256 181.33A74.67 74.67 0 11181.33 256 74.75 74.75 0 01256 181.33m0-37.33a112 112 0 10112 112 112 112 0 00-112-112z"></path>
  </symbol>
  <symbol xmlns="http://www.w3.org/2000/svg" viewBox="0 0 512 512" id="logo-linkedin">
    <path d="M444.17 32H70.28C49.85 32 32 46.7 32 66.89v374.72C32 461.91 49.85 480 70.28 480h373.78c20.54 0 35.94-18.21 35.94-38.39V66.89C480.12 46.7 464.6 32 444.17 32zm-273.3 373.43h-64.18V205.88h64.18zM141 175.54h-.46c-20.54 0-33.84-15.29-33.84-34.43 0-19.49 13.65-34.42 34.65-34.42s33.85 14.82 34.31 34.42c-.01 19.14-13.31 34.43-34.66 34.43zm264.43 229.89h-64.18V296.32c0-26.14-9.34-44-32.56-44-17.74 0-28.24 12-32.91 23.69-1.75 4.2-2.22 9.92-2.22 15.76v113.66h-64.18V205.88h64.18v27.77c9.34-13.3 23.93-32.44 57.88-32.44 42.13 0 74 27.77 74 87.64z"></path>
  </symbol>
  <symbol fill="#000000" role="img" xmlns="http://www.w3.org/2000/svg" viewBox="0 0 24 24" id="md">
    <title>Markdown icon</title>
    <path d="M22.269 19.385H1.731a1.73 1.73 0 0 1-1.73-1.73V6.345a1.73 1.73 0 0 1 1.73-1.73h20.538a1.73 1.73 0 0 1 1.73 1.73v11.308a1.73 1.73 0 0 1-1.73 1.731zm-16.5-3.462v-4.5l2.308 2.885 2.307-2.885v4.5h2.308V8.078h-2.308l-2.307 2.885-2.308-2.885H3.461v7.847zM21.231 12h-2.308V8.077h-2.307V12h-2.308l3.461 4.039z"></path>
  </symbol>
  <symbol xmlns="http://www.w3.org/2000/svg" viewBox="0 0 512 512" id="menu-outline">
    <path fill="none" stroke="currentColor" stroke-linecap="round" stroke-miterlimit="10" stroke-width="32" d="M80 160h352M80 256h352M80 352h352"></path>
  </symbol>
  <symbol fill="none" xmlns="http://www.w3.org/2000/svg" viewBox="0 0 120 257" id="mongo">
    <path d="M82.3229 28.5501C71.5367 15.7947 62.2485 2.84006 60.351 0.149477C60.1512 -0.0498257 59.8515 -0.0498257 59.6518 0.149477C57.7542 2.84006 48.4661 15.7947 37.6798 28.5501C-54.9019 146.238 52.2613 225.661 52.2613 225.661L53.1601 226.258C53.959 238.516 55.9565 256.154 55.9565 256.154H59.9514H63.9463C63.9463 256.154 65.9438 238.615 66.7428 226.258L67.6416 225.561C67.7414 225.561 174.905 146.238 82.3229 28.5501ZM59.9514 223.867C59.9514 223.867 55.1576 219.781 53.8592 217.688V217.489L59.6518 89.3375C59.6518 88.9389 60.2511 88.9389 60.2511 89.3375L66.0436 217.489V217.688C64.7453 219.781 59.9514 223.867 59.9514 223.867Z" fill="#00ED64"></path>
  </symbol>
</svg>